<?xml version="1.0" encoding="UTF-8"?><svg id="Layer_1" xmlns="http://www.w3.org/2000/svg" viewBox="0 0 36 36"><path d="M29.67,4h-3.5c-.64,0-1.17.52-1.17,1.17s.53,1.17,1.17,1.17h3.5c1.93,0,3.5,1.57,3.5,3.5v3.5c0,.64.53,1.17,1.17,1.17s1.17-.52,1.17-1.17v-3.5c0-3.21-2.62-5.83-5.83-5.83ZM9.83,29.67h-3.5c-1.93,0-3.5-1.57-3.5-3.5v-3.5c0-.64-.53-1.17-1.17-1.17s-1.17.53-1.17,1.17v3.5c0,3.21,2.62,5.83,5.83,5.83h3.5c.64,0,1.17-.53,1.17-1.17s-.52-1.17-1.17-1.17ZM1.67,14.5c.64,0,1.17-.52,1.17-1.17v-3.5c0-1.93,1.57-3.5,3.5-3.5h3.5c.64,0,1.17-.52,1.17-1.17s-.52-1.17-1.17-1.17h-3.5C3.12,4,.5,6.62.5,9.83v3.5c0,.64.53,1.17,1.17,1.17ZM34.33,21.5c-.64,0-1.17.53-1.17,1.17v3.5c0,1.93-1.57,3.5-3.5,3.5h-3.5c-.64,0-1.17.53-1.17,1.17s.53,1.17,1.17,1.17h3.5c3.21,0,5.83-2.62,5.83-5.83v-3.5c0-.64-.53-1.17-1.17-1.17Z"/><path d="M5.17,11v14c0,.64.52,1.17,1.17,1.17s1.17-.53,1.17-1.17v-14c0-.64-.52-1.17-1.17-1.17s-1.17.52-1.17,1.17ZM18,9.83c-.64,0-1.17.52-1.17,1.17v14c0,.64.52,1.17,1.17,1.17s1.17-.53,1.17-1.17v-14c0-.64-.53-1.17-1.17-1.17ZM22.08,9.83c-.64,0-1.17.52-1.17,1.17v14c0,.64.53,1.17,1.17,1.17s1.17-.53,1.17-1.17v-14c0-.64-.53-1.17-1.17-1.17Z"/><rect x="9.25" y="9.83" width="5.83" height="16.33" rx="1.17" ry="1.17"/><rect x="25" y="9.83" width="5.83" height="16.33" rx="1.17" ry="1.17"/></svg>