<?xml version="1.0" encoding="UTF-8"?><svg id="Layer_1" xmlns="http://www.w3.org/2000/svg" viewBox="0 0 36 36"><defs><style>.cls-1{fill-rule:evenodd;}</style></defs><path class="cls-1" d="M25.5,20.78c.81-.18,1.4-.33,1.78-.45v.58c0,.71-.04,1.18-.11,1.43-.12.39-.35.71-.7.97-.48.35-.99.53-1.52.53-.47,0-.86-.15-1.17-.45-.3-.3-.46-.66-.46-1.07s.2-.76.58-1.03c.25-.17.78-.34,1.6-.51Z"/><path class="cls-1" d="M30.93.5H5.07C2.54.5.5,2.54.5,5.07v25.86c0,2.53,2.04,4.57,4.57,4.57h25.86c2.53,0,4.57-2.04,4.57-4.57V5.07c0-2.53-2.04-4.57-4.57-4.57ZM16.24,24.7c-1.07.81-2.42,1.21-4.07,1.21-2.03,0-3.7-.69-5.01-2.08-1.3-1.39-1.96-3.29-1.96-5.69,0-2.55.66-4.53,1.97-5.94,1.32-1.41,3.05-2.11,5.19-2.11,1.87,0,3.4.55,4.56,1.66.7.65,1.22,1.59,1.57,2.82l-3.06.73c-.18-.8-.56-1.42-1.13-1.88s-1.27-.69-2.09-.69c-1.14,0-2.06.41-2.76,1.22-.71.81-1.06,2.13-1.06,3.96,0,1.93.34,3.31,1.04,4.13s1.6,1.23,2.71,1.23c.82,0,1.53-.26,2.12-.78.59-.52,1.02-1.34,1.28-2.46l2.99.95c-.46,1.67-1.22,2.91-2.29,3.72ZM27.9,25.65c-.08-.19-.17-.48-.29-.86-.04-.18-.08-.29-.1-.35-.5.49-1.04.85-1.61,1.1-.57.24-1.18.36-1.82.36-1.15,0-2.05-.31-2.7-.93-.66-.62-.99-1.4-.99-2.35,0-.62.15-1.18.45-1.67.3-.49.72-.87,1.26-1.13.54-.26,1.31-.49,2.33-.68,1.37-.26,2.32-.5,2.85-.72v-.29c0-.57-.14-.97-.42-1.21-.28-.24-.8-.36-1.57-.36-.53,0-.93.1-1.23.31-.29.2-.52.56-.71,1.08l-2.66-.48c.3-1.07.82-1.87,1.55-2.38.73-.52,1.81-.77,3.26-.77,1.3,0,2.28.15,2.92.46.64.31,1.09.7,1.35,1.18.26.48.39,1.35.39,2.62l-.03,3.43c0,.97.05,1.69.14,2.15.09.47.27.96.53,1.49h-2.9Z"/></svg>