<?xml version="1.0" encoding="UTF-8"?><svg id="Layer_1" xmlns="http://www.w3.org/2000/svg" viewBox="0 0 36 36"><path d="M21.16,35.18c3.19-.2,6.14-1.76,8.1-4.29.97-1.26,1.64-2.72,1.98-4.27,1.36-6.07-2.74-11.5-6.33-15.92-.17-.21-.34-.43-.52-.64-2.06-2.6-2.8-6.02-1.99-9.24-2.47.7-11.89,5.72-13.03,16.35-.58-1.38-.95-2.84-1.08-4.33-2.66,4.1-4.61,8.9-3.49,13.85.34,1.53,1.02,2.97,1.98,4.21,1.94,2.51,4.86,4.07,8.03,4.28-2.09-1.29-2.91-3.93-1.9-6.17,1.31-2.87,3.88-4.96,5.08-7.89,1.2,2.93,3.77,5.02,5.08,7.89,1.01,2.25.19,4.89-1.91,6.17h0Z"/></svg>