<?xml version="1.0" encoding="UTF-8"?><svg id="Layer_1" xmlns="http://www.w3.org/2000/svg" viewBox="0 0 36 36"><path d="M25.61,11.32c2.61,0,4.99-1.02,6.81-2.84,1.82-1.82,2.84-4.2,2.84-6.81,0-.45-.34-.91-.91-.91-2.61,0-4.99,1.02-6.81,2.84s-2.84,4.2-2.84,6.81c0,.45.45.91.91.91h0ZM35.37,15.52c-1.82-1.82-4.2-2.84-6.81-2.84s-4.99,1.02-6.81,2.84c-.34.35-.34.9,0,1.25,1.82,1.82,4.2,2.84,6.81,2.84s4.99-1.02,6.81-2.84c.34-.35.34-.9,0-1.25h0ZM19.93,14.5c.23,0,.45-.11.57-.23,3.75-3.75,3.75-9.88,0-13.62-.35-.34-.9-.34-1.25,0-3.75,3.75-3.75,9.88,0,13.62.23.23.45.23.68.23h0ZM21.52,19.72c-2.61,0-4.99,1.02-6.81,2.84-.34.35-.34.9,0,1.25,1.82,1.82,4.2,2.84,6.81,2.84s4.99-1.02,6.81-2.84c.34-.35.34-.9,0-1.25-1.82-1.82-4.2-2.84-6.81-2.84h0ZM12.89,21.53c.23,0,.45-.11.57-.23,3.75-3.75,3.75-9.88,0-13.62-.35-.34-.9-.34-1.25,0-3.75,3.75-3.75,9.88,0,13.62.23.11.45.23.68.23h0ZM14.59,26.64c-2.61,0-4.99,1.02-6.81,2.84-.34.35-.34.9,0,1.25,1.82,1.82,4.2,2.84,6.81,2.84s4.99-1.02,6.81-2.84c.34-.35.34-.9,0-1.25-1.82-1.82-4.31-2.84-6.81-2.84ZM6.54,14.61c-.35-.34-.9-.34-1.25,0-1.82,1.82-2.84,4.2-2.84,6.81s1.02,4.99,2.84,6.81c.11.11.34.23.57.23s.45-.11.57-.23c3.86-3.75,3.86-9.88.11-13.62h0ZM4.27,30.5l-3.63,3.63c-.34.35-.34.9,0,1.25.11.11.34.23.57.23s.45-.11.57-.23l3.75-3.63c.34-.35.34-.9,0-1.25-.35-.34-.9-.34-1.25,0h0Z"/></svg>