<?xml version="1.0" encoding="UTF-8"?><svg id="Layer_1" xmlns="http://www.w3.org/2000/svg" viewBox="0 0 36 36"><path d="M35.15,1.25c-1.45-1.19-3.53-1.23-5.03-.1l-.69.52c-2.37-1.35-5.6.07-7.58,2.02-1.38,1.36-3.21,3.3-6.29,4.53-3.78,1.52-7.6,3.23-9.91,5.51-2.51,2.48-4.26,5.46-4.92,8.4-1.31,5.81,1.99,9.65,6.93,9.65,3.52,0,7.52-1.88,10.73-5.05,2.28-2.26,4.02-6.01,5.56-9.73,1.27-3.07,3.19-4.85,4.71-6.36,2.34-2.31,3.2-5.29,2.26-7.34l.53-.4c.69-.52,1.64-.5,2.3.05.47.39,1.17.32,1.55-.16s.32-1.17-.16-1.55ZM9.03,26.45c-.33.06-.66-.04-.91-.25-4-3.48-2.62-10.14,2.6-11.57,0,0,3.44-1.14,6.36,1.58.2.18.32.43.35.7.44,4.36-4.34,8.85-8.39,9.54h0Z"/><path d="M11.3,16.76c-3.25.89-4.38,4.91-2.11,7.4,2.75-.76,6-3.78,6.06-6.61-1.12-.87-2.57-1.16-3.94-.78ZM30.22,12.22c-1.44,1.43-3.12,2.96-4.23,5.63-1.63,3.93-3.48,7.92-6.05,10.46-3.03,2.99-7.1,5.3-11.27,5.64,4.46,2.1,9.24,2.53,13.41-.18,6.89-4.5,5.01-10.67,8-14.5,2.62-3.35,4.31-8.14,3.2-12.29-.44,1.86-1.52,3.71-3.06,5.24h0Z"/></svg>