<?xml version="1.0" encoding="UTF-8"?><svg id="Layer_1" xmlns="http://www.w3.org/2000/svg" viewBox="0 0 36 36"><defs><style>.cls-1{fill-rule:evenodd;}</style></defs><path class="cls-1" d="M9.96,11.8c2.19-1.42,6.75-2.9,13.69-4.44l-4.82,2.55C8.81,14.35,2.79,21.53.69,31.41l2.39,4.2c.66-3.9,1.93-7.72,4.26-10.92.11.06.22.13.34.2,1.76.96,3.56,1.64,5.4,2.03,3.8.81,6.9.56,9.28-.75,1.85-1.08,3.51-3.06,5.01-5.92,1.69-3.97,3.03-7.02,4.03-9.14,1.22-2.58,2.52-4.77,3.91-6.58-1.12-.45-2.25-.89-3.38-1.31-2.6-1.04-4.73-1.74-6.4-2.1-4.84-1.03-9.11-.97-12.81.17l-.07.02s-.08.01-.12,0v.06c-.81.22-1.58.52-2.33.89-3.87,1.87-6.42,4.97-7.64,9.3-.13.44-.25.89-.35,1.34-.31,1.57-.12,3.61.56,6.14,1.5-2.71,3.89-5.13,7.17-7.24h0Z"/></svg>