<?xml version="1.0" encoding="UTF-8"?><svg id="Layer_1" xmlns="http://www.w3.org/2000/svg" viewBox="0 0 36 36"><defs><style>.cls-1{fill-rule:evenodd;}</style></defs><path class="cls-1" d="M30.93.5H5.07C2.54.5.5,2.54.5,5.07v25.86c0,2.53,2.04,4.57,4.57,4.57h25.86c2.53,0,4.57-2.04,4.57-4.57V5.07c0-2.53-2.04-4.57-4.57-4.57ZM18.79,23.4h-2.87v-12.04l-3.04,12.04h-2.98l-3.02-12.04v12.04h-2.87v-15.3h4.62l2.78,10.44,2.74-10.44h4.64v15.3ZM31.99,22.26c0,1.31-.1,2.29-.32,2.94-.22.64-.52,1.15-.91,1.52s-.91.66-1.56.87c-.65.21-1.47.31-2.47.31-1.88,0-3.21-.32-4-.96-.78-.65-1.18-1.46-1.18-2.45,0-.1.01-.22.01-.36l3.36.41c.05.39.18.66.38.8.28.21.72.32,1.32.32.76,0,1.34-.12,1.72-.35.26-.15.45-.4.58-.74.09-.24.14-.69.14-1.35v-1.61c-.88,1.19-1.98,1.79-3.32,1.79-1.49,0-2.67-.63-3.54-1.89-.68-.99-1.02-2.23-1.02-3.71,0-1.86.45-3.28,1.34-4.26.89-.98,2.01-1.47,3.33-1.47s2.51.6,3.4,1.8v-1.55h2.74v9.94Z"/><path class="cls-1" d="M28.4,15.15c.48.55.71,1.4.71,2.55s-.25,1.93-.74,2.49-1.1.84-1.82.84c-.66,0-1.23-.27-1.68-.82-.46-.54-.68-1.4-.68-2.58s.22-1.95.68-2.5c.45-.55,1.03-.82,1.74-.82s1.32.28,1.79.84Z"/></svg>