<?xml version="1.0" encoding="UTF-8"?><svg id="Layer_1" xmlns="http://www.w3.org/2000/svg" viewBox="0 0 36 36"><path d="M25.59,1.37c0-.57-.46-1.04-1.04-1.04h-4.14c-.57,0-1.04.46-1.04,1.04v1.79h6.21v-1.79ZM7.34,30.24c-.91-.54-1.75-1.19-2.5-1.94-.05-.05-.11-.11-.16-.17-1.25.62-2.36,1.49-3.27,2.54-.34.39-.34.96,0,1.35,2,2.31,4.89,3.64,7.95,3.64.91,0,1.81-.12,2.67-.35-1.08-1.14-1.97-2.45-2.63-3.87l-2.06-1.22ZM8.39,28.45c-.22-1.01-.33-2.03-.33-3.06,0-2.35.57-4.62,1.62-6.63-1.69-.84-3.58-1.22-5.46-1.08-.51.04-.92.44-.96.96-.22,3.05.89,6.04,3.04,8.19.63.63,1.33,1.17,2.09,1.62ZM28.43,14.56c-1.66-.91-2.61-2.52-2.61-4.42v-2.85c.53-.04.95-.49.95-1.03s-.42-.99-.95-1.03c0,0-6.65,0-6.65,0-.53.04-.95.49-.95,1.03s.42.99.95,1.03v2.85c0,1.89-.95,3.5-2.61,4.42-2.67,1.47-4.71,3.87-5.72,6.75h23.32c-1.01-2.88-3.04-5.28-5.72-6.75h0ZM34.68,23.38H10.3c-.11.66-.16,1.34-.17,2.01,0,4,1.95,7.77,5.22,10.08.17.12.38.19.6.19h13.08c.21,0,.42-.07.6-.19,3.27-2.32,5.22-6.09,5.22-10.08,0-.67-.06-1.35-.17-2.01Z"/></svg>