<?xml version="1.0" encoding="UTF-8"?><svg id="Layer_1" xmlns="http://www.w3.org/2000/svg" viewBox="0 0 36 36"><path d="M35.33,18.46l-3.79-5.58,3.79-5.58c.18-.27.22-.6.12-.9-.1-.3-.34-.54-.65-.64L22.43,1.65c-.44-.15-.92.02-1.18.4l-3.25,4.87-3.25-4.87c-.26-.39-.74-.55-1.18-.4L1.2,5.75c-.3.1-.54.34-.65.64-.1.3-.06.64.12.9l3.79,5.58-3.79,5.58c-.18.27-.22.6-.12.9.1.3.34.54.65.64l12.37,4.1c.44.15.92-.02,1.18-.4l3.25-4.87,3.25,4.87c.26.39.74.55,1.18.4l12.37-4.1c.3-.1.54-.34.65-.64.1-.3.06-.64-.12-.9h0ZM18,15.89l-9.06-3.02,9.06-3.02,9.06,3.02-9.06,3.02Z"/><path d="M23.07,26.05c-1.29.43-2.75-.04-3.53-1.21l-1.54-2.31-1.54,2.31c-.78,1.17-2.24,1.65-3.54,1.21l-8.25-2.75v5.99c0,.44.28.83.7.97l12.3,4.1s.07.02.11.03c0,0,0,0,0,0h0c.07.02.15.02.22.02.11,0,.22-.02.33-.05l12.3-4.1c.42-.14.7-.53.7-.97v-5.99l-8.26,2.75Z"/></svg>