<?xml version="1.0" encoding="UTF-8"?><svg id="Layer_1" xmlns="http://www.w3.org/2000/svg" viewBox="0 0 36 36"><path d="M27.7,16.24c-1.86-.91-3.83-1.55-5.86-1.92-1.08-.19-1.86-1.12-1.86-2.21v-4.62h-3.96v4.62c0,1.09-.78,2.01-1.86,2.21-2.03.36-4,1.01-5.86,1.92-.72.35-1.13,1.13-1,1.93l1.58,9.92c.42,2.64.76,4.78.76,4.78.14.89.9,1.54,1.81,1.54h13.08c.91,0,1.67-.65,1.81-1.54l2.34-14.7c.13-.8-.27-1.58-1-1.93ZM24.43,29.4c-.09,1.16-1.07,2.08-2.24,2.08h-8.37c-1.17,0-2.15-.91-2.24-2.08l-.63-8.23c-.06-.79.3-1.56.96-2.02,3.71-2.59,8.5-2.59,12.21,0,.65.45,1.02,1.23.96,2.02l-.63,8.23Z"/><path d="M23.53,19.97c-1.68-1.17-3.61-1.76-5.53-1.76s-3.85.59-5.53,1.76c-.36.25-.56.68-.53,1.12l.63,8.23c.05.65.6,1.15,1.25,1.15h8.37c.65,0,1.2-.51,1.25-1.15l.63-8.23c.03-.44-.17-.87-.53-1.12Z"/><path d="M15.94,6.48h.08s3.96,0,3.96,0h0s.04,0,.04,0h.76v-1h-.8v-3.23c0-.37-.3-.67-.67-.67h-2.62c-.37,0-.67.3-.67.67v3.23h-1.01v1h.94Z"/></svg>