<?xml version="1.0" encoding="UTF-8"?><svg id="Layer_1" xmlns="http://www.w3.org/2000/svg" viewBox="0 0 36 36"><path d="M9.54,3.15c1.11.25,1.92.64,2.54,1.08,2.71-.75,5.85-1.05,8.81-.76C17.88.07,13.7-.34,9.42,1.15c-1.03.36-.89,1.79.12,2h0ZM5.14,21.85c2.06-1.79,4.4-2.21,6.96-1.22,2.38.94,6.28,2.06,9.83,2.63-.26-.4-.26-.41-.28-.44-.96-1.67-3.06-5.99-1.88-10.14.69-2.45,2.39-4.42,5.04-5.85.02-.01.02,0,.45-.25-3.23-1.22-6.91-1.4-10.31-.85-3.07.49-4.68,1.27-6.18,2.26C1.46,12.82-.63,19.37.72,24.88h0c1.58,6.44,8.19,10.48,8.48,10.64.16.09.34.15.54.15.29,0,2.11-.06,3.37-1.55,1.12-1.32,1.43-3.27.94-5.82-.12-.65-.82-1.02-1.43-.75-.02,0-1.73.75-3.83.67-2.52-.09-4.49-1.31-5.89-3.6.36-.62,1.11-1.78,2.24-2.77Z"/><path d="M35.65,21.16c-.91-5.93-3.51-10.8-8.08-13.48-2.41,1.32-1.58.86-1.76.96-2.14,1.16-3.5,2.71-4.04,4.6-.96,3.38.84,7.07,1.67,8.53l1.16,1.83c3.46.32,7.05.12,10.08-1.17.36-.15.62-.24.81-.55.14-.21.19-.47.15-.72h0ZM27.95,15.73c-.6,0-1.04-.48-1.04-1.03s.45-1.03,1.04-1.03,1.03.46,1.03,1.03-.46,1.03-1.03,1.03Z"/></svg>