<?xml version="1.0" encoding="UTF-8"?><svg id="Layer_1" xmlns="http://www.w3.org/2000/svg" viewBox="0 0 36 36"><path d="M7.51,10.62c-3.67,2.79-6.8,8.97-2.72,13.2,1.36,1.5,2.83,2.22,4.49,2.22,3.56,0,6.84-3.33,6.87-3.36l.05-.05s1.5-1.46,2.67-2.39c2.07-1.57,4.61-2.39,7.2-2.33,2.22.05,3.98-.2,6.1-2.18.2-.18,1.87-1.88.25-5.11-3.8-6.87-19.8-3.96-24.94,0h0ZM10.13,15.59c4.01.12,4.01,5.94,0,6.06-4.01-.12-4.01-5.94,0-6.06ZM10.13,16.8c1,0,1.82.81,1.82,1.82s-.81,1.82-1.82,1.82-1.82-.81-1.82-1.82.81-1.82,1.82-1.82ZM.42,19.2s0,.63,0,.63c-.17,7.82,3.11,12.13,8.87,12.13s10.34-4.31,11.19-5.17c.44-.43,1.49-1.4,2.19-1.96.94-.79,2.46-1.08,3.99-1.01,2.67.08,5.29-.66,7.53-2.12.87-.56,1.4-1.53,1.4-2.57,0,0,0-5.76-.02-5.74C35.15.75,14.13,2.76,6,8.73,3.33,10.8.31,14.95.42,19.2H.42ZM33.53,10.07c2.01,4.02-.24,6.3-.5,6.54-5.89,5.35-8.66-.85-15.98,6.9-2.05,2.13-8.44,6.56-13.15,1.13-1.38-1.45-2.19-3.35-2.26-5.35-.15-3.9,2.65-7.69,5.11-9.62,5.8-4.41,22.55-7.35,26.78.4h0Z"/></svg>