<?xml version="1.0" encoding="UTF-8"?><svg id="Layer_1" xmlns="http://www.w3.org/2000/svg" viewBox="0 0 36 36"><defs><style>.cls-1{fill-rule:evenodd;}</style></defs><path class="cls-1" d="M7.87,33.48c-.53.53-.53,1.38,0,1.9.53.53,1.38.53,1.9,0,.53-.53.53-1.38,0-1.9-.53-.53-1.38-.53-1.9,0Z"/><path class="cls-1" d="M.69,26.3c-.53.53-.53,1.38,0,1.9.53.53,1.38.53,1.9,0,.53-.53.53-1.38,0-1.9-.53-.53-1.38-.53-1.9,0Z"/><path class="cls-1" d="M4.24,29.84c-.53.53-.53,1.38,0,1.9.53.53,1.38.53,1.9,0,.53-.53.53-1.38,0-1.9-.53-.53-1.38-.53-1.9,0Z"/><path class="cls-1" d="M7.27,25.09c-.53-.53-1.38-.53-1.9,0-.53.53-.53,1.38,0,1.9.53.53,1.38.53,1.9,0,.53-.53.53-1.38,0-1.9Z"/><path class="cls-1" d="M11.39,14.83c-.5-.5-1.32-.5-1.82,0-.5.5-.5,1.32,0,1.82l.57.57c-1.56,2.4-1.29,5.64.81,7.75,2.11,2.1,5.35,2.37,7.75.81l.57.57c.5.5,1.32.5,1.82,0,.5-.5.5-1.32,0-1.82l-9.71-9.71Z"/><path class="cls-1" d="M9,28.72c-.53.53-.53,1.38,0,1.9.53.53,1.38.53,1.9,0,.53-.53.53-1.38,0-1.9s-1.38-.53-1.9,0Z"/><path class="cls-1" d="M34.76,12.44c-.07.07-.15.14-.23.2l-5.62,4.68-6.88,5.73-1.82-1.83-5.5-5.49-1.83-1.83,2.51-3.01L23.29,1.4c1.14-1.38,3.18-1.57,4.56-.43.08.07.16.14.23.22l6.68,6.67c1.26,1.26,1.26,3.32,0,4.59Z"/></svg>