<?xml version="1.0" encoding="UTF-8"?><svg id="Layer_1" xmlns="http://www.w3.org/2000/svg" viewBox="0 0 36 36"><path d="M34.34,21.2h1.07v-3.41H12.74c-.16,1.67-1.57,2.98-3.29,2.98s-3.13-1.31-3.29-2.98H.72v13.92h8.89c-.03-.19-.05-.38-.05-.57,0-.17.01-.34.04-.5.06-.37.18-.73.37-1.07.55-.97,1.59-1.63,2.79-1.63s2.24.66,2.79,1.63c.19.33.31.69.37,1.07.02.16.04.33.04.5,0,.19-.02.38-.05.57h19.51v-7.24h-1.07c-.9,0-1.63-.73-1.63-1.63s.73-1.63,1.63-1.63h0ZM22.57,26.32c-1.49,0-2.7-1.21-2.7-2.7s1.21-2.7,2.7-2.7,2.7,1.21,2.7,2.7-1.21,2.7-2.7,2.7ZM35,15.4l-1.95-.89h0l-13.64-6.21c-.24,1.46-1.51,2.57-3.04,2.57-1.7,0-3.08-1.38-3.08-3.08,0-.74.26-1.42.7-1.96l-3.36-1.53C2.61,4.9,1,11.75.68,14.51c-.08.71-.08,1.14-.08,1.14h34.34c.14,0,.19-.19.06-.26h0Z"/></svg>