<?xml version="1.0" encoding="UTF-8"?><svg id="Layer_1" xmlns="http://www.w3.org/2000/svg" viewBox="0 0 36 36"><path d="M34.77,23.83H1.23c-.4,0-.73.33-.73.73,0,0,0,0,0,0v.73c0,1.1.32,2.16.93,3.07.54.81,1.45,1.3,2.43,1.3h28.28c.98,0,1.89-.49,2.43-1.3.61-.91.93-1.98.93-3.07v-.73c0-.4-.33-.73-.73-.73h0ZM3.71,22.37h28.58c.22,0,.43-.1.56-.27.14-.17.19-.39.15-.61-1.31-6.44-6.62-11.26-13-12.1.12-.27.19-.56.19-.88,0-1.21-.98-2.19-2.19-2.19s-2.19.98-2.19,2.19c0,.31.07.61.19.88-6.38.85-11.7,5.67-13,12.1-.04.21.01.44.15.61.14.17.35.27.56.27ZM7.26,18.36c1.24-2.15,3.08-3.86,5.31-4.95.36-.18.8-.03.97.34.18.36.03.8-.34.97-1.97.96-3.59,2.47-4.69,4.37-.13.23-.38.36-.63.36-.12,0-.25-.03-.36-.1-.35-.2-.47-.65-.27-1h0Z"/></svg>