<?xml version="1.0" encoding="UTF-8"?><svg id="Layer_1" xmlns="http://www.w3.org/2000/svg" viewBox="0 0 36 36"><defs><style>.cls-1{fill-rule:evenodd;}</style></defs><path class="cls-1" d="M25.21,20.65c.81-.17,1.41-.32,1.78-.45v.59c0,.7-.04,1.18-.11,1.43-.11.38-.35.7-.7.97-.48.35-.99.52-1.51.52-.48,0-.87-.15-1.17-.45-.31-.3-.46-.65-.46-1.06s.19-.77.57-1.04c.25-.16.78-.34,1.6-.51Z"/><path class="cls-1" d="M30.93.5H5.07C2.54.5.5,2.54.5,5.07v25.86c0,2.53,2.04,4.57,4.57,4.57h25.86c2.53,0,4.57-2.04,4.57-4.57V5.07c0-2.53-2.04-4.57-4.57-4.57ZM17.63,25.53h-3.1l-6.17-9.98v9.98h-2.87v-15.31h3.01l6.26,10.22v-10.22h2.87v15.31ZM27.61,25.53c-.08-.2-.17-.49-.28-.87-.05-.17-.09-.29-.11-.35-.5.49-1.03.86-1.61,1.1-.57.24-1.17.37-1.82.37-1.14,0-2.04-.31-2.7-.93-.66-.62-.99-1.41-.99-2.35,0-.63.15-1.19.45-1.68.3-.49.72-.86,1.26-1.12.54-.26,1.32-.49,2.33-.69,1.37-.26,2.32-.49,2.85-.72v-.29c0-.56-.14-.97-.41-1.21-.28-.24-.81-.36-1.58-.36-.52,0-.93.11-1.22.31-.29.21-.53.57-.71,1.08l-2.66-.48c.3-1.07.81-1.86,1.54-2.38.73-.51,1.82-.77,3.26-.77,1.31,0,2.28.15,2.92.46s1.09.71,1.35,1.18c.26.48.39,1.36.39,2.63l-.03,3.42c0,.98.05,1.7.14,2.16.1.46.27.96.53,1.49h-2.9Z"/></svg>