<?xml version="1.0" encoding="UTF-8"?><svg id="Layer_1" xmlns="http://www.w3.org/2000/svg" viewBox="0 0 36 36"><path d="M34.83,19.95l-8.08-1.74-5.45-6.21,8.08,1.74,5.45,6.21ZM19.8,10.47c-.25-.05-.5.06-.64.28l-4.04,6.9-.1-.05-1.33-8.18,7.98-4.16.94,5.82-2.82-.61ZM10.76,22.24l-7.3-3.87,8.17-1.24,7.3,3.87-8.17,1.24ZM12.1,3.35l8.16,1.3-7.33,3.82-8.16-1.3,7.33-3.82ZM3.63,8.18l8.89,1.42,1.18,7.3-1.7-.9c-.11-.06-.24-.08-.37-.06l-6.59,1-1.42-8.76ZM2.05,18.96c.82.43-2.95-1.56,7.95,4.22l-1.57,9.27L.47,28.24l1.57-9.27ZM18.49,31.3l-8.9,1.36,1.58-9.27c.92-.14-3.31.5,8.9-1.36l-1.57,9.27ZM21.37,21.4c.03-.25-.09-.49-.31-.61l-4.9-2.6,3.6-6.15,5.94,6.77-4.76,8.11-.43-.49.85-5.03h0ZM30.76,29.42l-8.8-1.89,4.76-8.11,8.8,1.89-4.77,8.11Z"/></svg>